<svg width="34" height="35" viewBox="0 0 34 35" fill="none" xmlns="http://www.w3.org/2000/svg">
<path opacity="0.1" fill-rule="evenodd" clip-rule="evenodd" d="M0 17.1066C0 7.71773 7.61116 0.106567 17 0.106567C26.3888 0.106567 34 7.71773 34 17.1066C34 26.4954 26.3888 34.1066 17 34.1066C7.61116 34.1066 0 26.4954 0 17.1066Z" fill="white"/>
<path fill-rule="evenodd" clip-rule="evenodd" d="M26.0667 17.094C26.0667 17.7072 26.0043 18.3195 25.8816 18.9163C25.7621 19.499 25.585 20.0711 25.353 20.6179C25.1264 21.1551 24.8452 21.6728 24.5167 22.1555C24.1931 22.6352 23.8203 23.0853 23.4108 23.4955C23.0004 23.904 22.5488 24.2758 22.0693 24.6008C21.585 24.927 21.0666 25.2077 20.5291 25.4354C19.9814 25.6662 19.408 25.843 18.8258 25.9624C18.2282 26.0853 17.6137 26.1481 16.9996 26.1481C16.3851 26.1481 15.7706 26.0853 15.1738 25.9624C14.5907 25.843 14.0174 25.6662 13.4702 25.4354C12.9327 25.2077 12.4138 24.927 11.9295 24.6008C11.45 24.2758 10.9984 23.904 10.5889 23.4955C10.1789 23.0853 9.80611 22.6352 9.48204 22.1555C9.1553 21.6728 8.87371 21.1551 8.64616 20.6179C8.41414 20.0711 8.23663 19.499 8.11664 18.9163C7.99535 18.3195 7.93335 17.7072 7.93335 17.094C7.93335 16.4804 7.99531 15.8668 8.11668 15.2712C8.23666 14.6885 8.41417 14.1156 8.64619 13.5696C8.87374 13.0321 9.15534 12.5139 9.48207 12.0311C9.80615 11.5511 10.1789 11.1019 10.5889 10.6911C10.9984 10.2826 11.45 9.91175 11.9295 9.58726C12.4138 9.25965 12.9327 8.97895 13.4702 8.75081C14.0174 8.51955 14.5907 8.3423 15.1738 8.22383C15.7706 8.10182 16.3851 8.03992 16.9996 8.03992C17.6137 8.03992 18.2282 8.10182 18.8259 8.22383C19.4081 8.34233 19.9814 8.51959 20.5291 8.75081C21.0666 8.97892 21.585 9.25965 22.0693 9.58726C22.5488 9.91175 23.0004 10.2826 23.4108 10.6911C23.8203 11.1019 24.1931 11.5511 24.5168 12.0311C24.8452 12.5139 25.1264 13.0321 25.353 13.5696C25.585 14.1156 25.7621 14.6885 25.8816 15.2712C26.0043 15.8668 26.0667 16.4804 26.0667 17.094ZM13.6959 10.1005C11.5367 11.1187 9.92515 13.1054 9.42264 15.4998C9.62677 15.5016 12.8534 15.5423 16.571 14.5559C15.2309 12.1783 13.7991 10.238 13.6959 10.1005ZM17.2125 15.7465C13.2257 16.9384 9.40007 16.8526 9.26283 16.8473C9.2606 16.9304 9.25662 17.0109 9.25662 17.094C9.25662 19.0803 10.007 20.8911 11.2405 22.2603C11.2378 22.2563 13.3568 18.5025 17.5353 17.1533C17.6362 17.1197 17.7389 17.0896 17.8407 17.0604C17.6464 16.621 17.4343 16.1807 17.2125 15.7465ZM22.1131 11.2911C20.7499 10.0908 18.96 9.36269 16.9996 9.36269C16.3705 9.36269 15.7599 9.43874 15.1751 9.57931C15.2911 9.73495 16.7455 11.6616 18.0696 14.0895C20.9913 12.9958 22.0941 11.3194 22.1131 11.2911ZM18.3685 18.3416C18.3513 18.3473 18.334 18.3522 18.3172 18.3584C13.7487 19.9487 12.2568 23.1537 12.2407 23.1887C13.5552 24.2095 15.2039 24.8253 16.9996 24.8253C18.0719 24.8253 19.0933 24.6073 20.0226 24.2126C19.9079 23.5371 19.4581 21.1692 18.3685 18.3416ZM21.3264 23.5061C23.065 22.3346 24.2997 20.4743 24.6442 18.3194C24.4848 18.2682 22.3185 17.5834 19.8193 17.9835C20.8349 20.7705 21.2476 23.0402 21.3264 23.5061ZM18.6656 15.2416C18.8453 15.6103 19.0194 15.9856 19.1801 16.3628C19.2372 16.4981 19.293 16.6307 19.3474 16.7633C22.0073 16.4291 24.6279 16.9914 24.7399 17.0144C24.7222 15.1815 24.0656 13.4993 22.9792 12.1823C22.9646 12.2031 21.7227 13.9949 18.6656 15.2416Z" fill="white"/>
</svg>
