<svg width="34" height="35" viewBox="0 0 34 35" fill="none" xmlns="http://www.w3.org/2000/svg">
<path opacity="0.1" fill-rule="evenodd" clip-rule="evenodd" d="M0 17.1066C0 7.71773 7.61116 0.106567 17 0.106567C26.3888 0.106567 34 7.71773 34 17.1066C34 26.4954 26.3888 34.1066 17 34.1066C7.61116 34.1066 0 26.4954 0 17.1066Z" fill="white"/>
<path fill-rule="evenodd" clip-rule="evenodd" d="M17.0009 8.03992C14.5385 8.03992 14.2295 8.05068 13.2623 8.0947C12.2971 8.1389 11.6383 8.29171 11.0618 8.51592C10.4654 8.7475 9.95958 9.05728 9.45562 9.56143C8.95128 10.0654 8.6415 10.5712 8.40917 11.1674C8.18439 11.7441 8.03138 12.4031 7.98794 13.368C7.94468 14.3351 7.93335 14.6443 7.93335 17.1067C7.93335 19.5691 7.94431 19.8771 7.98813 20.8443C8.03252 21.8095 8.18533 22.4683 8.40935 23.0448C8.64112 23.6412 8.9509 24.147 9.45505 24.651C9.95883 25.1553 10.4647 25.4659 11.0606 25.6974C11.6375 25.9216 12.2965 26.0745 13.2616 26.1187C14.2287 26.1627 14.5375 26.1734 16.9997 26.1734C19.4623 26.1734 19.7704 26.1627 20.7375 26.1187C21.7027 26.0745 22.3623 25.9216 22.9392 25.6974C23.5354 25.4659 24.0405 25.1553 24.5442 24.651C25.0486 24.147 25.3583 23.6412 25.5907 23.045C25.8136 22.4683 25.9666 21.8093 26.0119 20.8445C26.0554 19.8773 26.0667 19.5691 26.0667 17.1067C26.0667 14.6443 26.0554 14.3353 26.0119 13.3682C25.9666 12.4029 25.8136 11.7441 25.5907 11.1676C25.3583 10.5712 25.0486 10.0654 24.5442 9.56143C24.0399 9.05709 23.5355 8.74731 22.9387 8.51592C22.3606 8.29171 21.7014 8.1389 20.7362 8.0947C19.7691 8.05068 19.4612 8.03992 16.998 8.03992H17.0009ZM16.1875 9.6738C16.4289 9.67342 16.6982 9.6738 17.0008 9.6738C19.4217 9.6738 19.7086 9.68249 20.6646 9.72593C21.5486 9.76635 22.0283 9.91407 22.3479 10.0382C22.7711 10.2025 23.0727 10.3989 23.3899 10.7163C23.7072 11.0336 23.9037 11.3358 24.0684 11.759C24.1925 12.0782 24.3404 12.558 24.3806 13.442C24.424 14.3978 24.4335 14.6849 24.4335 17.1046C24.4335 19.5243 24.424 19.8114 24.3806 20.7672C24.3402 21.6512 24.1925 22.131 24.0684 22.4502C23.904 22.8733 23.7072 23.1746 23.3899 23.4917C23.0725 23.8091 22.7713 24.0055 22.3479 24.1699C22.0287 24.2945 21.5486 24.4419 20.6646 24.4823C19.7088 24.5257 19.4217 24.5352 17.0008 24.5352C14.5798 24.5352 14.2929 24.5257 13.3371 24.4823C12.4531 24.4415 11.9733 24.2938 11.6535 24.1697C11.2304 24.0053 10.9282 23.8089 10.6108 23.4915C10.2935 23.1742 10.0971 22.8727 9.93234 22.4494C9.80824 22.1302 9.66034 21.6504 9.62011 20.7664C9.57666 19.8106 9.56797 19.5235 9.56797 17.1023C9.56797 14.6811 9.57666 14.3955 9.62011 13.4397C9.66053 12.5557 9.80824 12.0759 9.93234 11.7563C10.0967 11.3332 10.2935 11.031 10.6108 10.7136C10.9282 10.3963 11.2304 10.1999 11.6535 10.0351C11.9731 9.91048 12.4531 9.76314 13.3371 9.72253C14.1735 9.68475 14.4976 9.67342 16.1875 9.67153V9.6738ZM21.8406 11.1793C21.2399 11.1793 20.7526 11.666 20.7526 12.2669C20.7526 12.8676 21.2399 13.3549 21.8406 13.3549C22.4413 13.3549 22.9286 12.8676 22.9286 12.2669C22.9286 11.6662 22.4413 11.1793 21.8406 11.1793ZM17.0009 12.4505C14.4295 12.4505 12.3447 14.5353 12.3447 17.1067C12.3447 19.678 14.4295 21.7619 17.0009 21.7619C19.5723 21.7619 21.6563 19.678 21.6563 17.1067C21.6563 14.5353 19.5723 12.4505 17.0009 12.4505ZM17.0008 14.0844C18.6699 14.0844 20.0231 15.4374 20.0231 17.1067C20.0231 18.7757 18.6699 20.1289 17.0008 20.1289C15.3316 20.1289 13.9786 18.7757 13.9786 17.1067C13.9786 15.4374 15.3316 14.0844 17.0008 14.0844Z" fill="white"/>
</svg>
