<svg width="34" height="35" viewBox="0 0 34 35" fill="none" xmlns="http://www.w3.org/2000/svg">
<path opacity="0.1" fill-rule="evenodd" clip-rule="evenodd" d="M0 17.1066C0 7.71773 7.61116 0.106567 17 0.106567C26.3888 0.106567 34 7.71773 34 17.1066C34 26.4954 26.3888 34.1066 17 34.1066C7.61116 34.1066 0 26.4954 0 17.1066Z" fill="white"/>
<path fill-rule="evenodd" clip-rule="evenodd" d="M16.4909 13.9244L16.5265 14.5126L15.932 14.4406C13.7678 14.1645 11.8771 13.2281 10.2718 11.6555L9.48697 10.8752L9.28482 11.4514C8.85673 12.7359 9.13023 14.0925 10.0221 15.0048C10.4977 15.509 10.3907 15.5811 9.5702 15.2809C9.28482 15.1849 9.0351 15.1129 9.01132 15.1489C8.92808 15.2329 9.21347 16.3254 9.4394 16.7575C9.74857 17.3578 10.3788 17.946 11.0685 18.2942L11.6512 18.5703L10.9615 18.5823C10.2956 18.5823 10.2718 18.5943 10.3431 18.8464C10.581 19.6267 11.5204 20.455 12.5668 20.8152L13.304 21.0673L12.6619 21.4514C11.7106 22.0037 10.5928 22.3158 9.47507 22.3398C8.93997 22.3518 8.5 22.3998 8.5 22.4358C8.5 22.5559 9.95072 23.2282 10.795 23.4923C13.3278 24.2726 16.3363 23.9364 18.5956 22.6039C20.2009 21.6555 21.8062 19.7708 22.5553 17.946C22.9596 16.9736 23.3639 15.1969 23.3639 14.3446C23.3639 13.7923 23.3996 13.7203 24.0655 13.06C24.4579 12.6759 24.8265 12.2557 24.8979 12.1357C25.0168 11.9076 25.0049 11.9076 24.3985 12.1117C23.3877 12.4718 23.245 12.4238 23.7445 11.8836C24.1131 11.4994 24.5531 10.8031 24.5531 10.599C24.5531 10.563 24.3747 10.6231 24.1725 10.7311C23.9585 10.8511 23.4828 11.0312 23.1261 11.1393L22.484 11.3433L21.9013 10.9472C21.5803 10.7311 21.1284 10.491 20.8906 10.419C20.2841 10.2509 19.3566 10.2749 18.8096 10.467C17.3232 11.0072 16.3838 12.3998 16.4909 13.9244Z" fill="white"/>
</svg>
