<svg width="34" height="35" viewBox="0 0 34 35" fill="none" xmlns="http://www.w3.org/2000/svg">
<path opacity="0.1" fill-rule="evenodd" clip-rule="evenodd" d="M0 17.1066C0 7.71773 7.61116 0.106567 17 0.106567C26.3888 0.106567 34 7.71773 34 17.1066C34 26.4954 26.3888 34.1066 17 34.1066C7.61116 34.1066 0 26.4954 0 17.1066Z" fill="white"/>
<path fill-rule="evenodd" clip-rule="evenodd" d="M24.0845 11.2624C24.8647 11.4765 25.4792 12.1074 25.6877 12.9085C26.0667 14.3604 26.0667 17.39 26.0667 17.39C26.0667 17.39 26.0667 20.4194 25.6877 21.8714C25.4792 22.6726 24.8647 23.3034 24.0845 23.5176C22.6705 23.9066 17 23.9066 17 23.9066C17 23.9066 11.3295 23.9066 9.91545 23.5176C9.1352 23.3034 8.52073 22.6726 8.31219 21.8714C7.93335 20.4194 7.93335 17.39 7.93335 17.39C7.93335 17.39 7.93335 14.3604 8.31219 12.9085C8.52073 12.1074 9.1352 11.4765 9.91545 11.2624C11.3295 10.8733 17 10.8733 17 10.8733C17 10.8733 22.6705 10.8733 24.0845 11.2624ZM15.3 14.8399V20.5066L19.8334 17.6733L15.3 14.8399Z" fill="white"/>
</svg>
